<svg xmlns="http://www.w3.org/2000/svg" viewBox="0 0 800 500" preserveAspectRatio="xMidYMid slice">
  <defs>
    <linearGradient id="g" x1="0" y1="0" x2="1" y2="1">
      <stop offset="0" stop-color="#1e1b4b"/>
      <stop offset="0.5" stop-color="#7c3aed"/>
      <stop offset="1" stop-color="#ec4899"/>
    </linearGradient>
    <radialGradient id="spot" cx="0.3" cy="0.3" r="0.6">
      <stop offset="0" stop-color="#fff" stop-opacity="0.35"/>
      <stop offset="1" stop-color="#fff" stop-opacity="0"/>
    </radialGradient>
  </defs>
  <rect width="800" height="500" fill="url(#g)"/>
  <rect width="800" height="500" fill="url(#spot)"/>
  <!-- film strip -->
  <g fill="#0f172a" opacity="0.6">
    <rect x="40" y="60" width="720" height="40" rx="4"/>
    <rect x="40" y="400" width="720" height="40" rx="4"/>
  </g>
  <g fill="#fbbf24">
    <rect x="60" y="68" width="14" height="24" rx="2"/>
    <rect x="100" y="68" width="14" height="24" rx="2"/>
    <rect x="140" y="68" width="14" height="24" rx="2"/>
    <rect x="180" y="68" width="14" height="24" rx="2"/>
    <rect x="220" y="68" width="14" height="24" rx="2"/>
    <rect x="260" y="68" width="14" height="24" rx="2"/>
    <rect x="300" y="68" width="14" height="24" rx="2"/>
    <rect x="340" y="68" width="14" height="24" rx="2"/>
    <rect x="380" y="68" width="14" height="24" rx="2"/>
    <rect x="420" y="68" width="14" height="24" rx="2"/>
    <rect x="460" y="68" width="14" height="24" rx="2"/>
    <rect x="500" y="68" width="14" height="24" rx="2"/>
    <rect x="540" y="68" width="14" height="24" rx="2"/>
    <rect x="580" y="68" width="14" height="24" rx="2"/>
    <rect x="620" y="68" width="14" height="24" rx="2"/>
    <rect x="660" y="68" width="14" height="24" rx="2"/>
    <rect x="700" y="68" width="14" height="24" rx="2"/>
    <rect x="740" y="68" width="14" height="24" rx="2"/>
    <rect x="60" y="408" width="14" height="24" rx="2"/>
    <rect x="100" y="408" width="14" height="24" rx="2"/>
    <rect x="140" y="408" width="14" height="24" rx="2"/>
    <rect x="180" y="408" width="14" height="24" rx="2"/>
    <rect x="220" y="408" width="14" height="24" rx="2"/>
    <rect x="260" y="408" width="14" height="24" rx="2"/>
    <rect x="300" y="408" width="14" height="24" rx="2"/>
    <rect x="340" y="408" width="14" height="24" rx="2"/>
    <rect x="380" y="408" width="14" height="24" rx="2"/>
    <rect x="420" y="408" width="14" height="24" rx="2"/>
    <rect x="460" y="408" width="14" height="24" rx="2"/>
    <rect x="500" y="408" width="14" height="24" rx="2"/>
    <rect x="540" y="408" width="14" height="24" rx="2"/>
    <rect x="580" y="408" width="14" height="24" rx="2"/>
    <rect x="620" y="408" width="14" height="24" rx="2"/>
    <rect x="660" y="408" width="14" height="24" rx="2"/>
    <rect x="700" y="408" width="14" height="24" rx="2"/>
    <rect x="740" y="408" width="14" height="24" rx="2"/>
  </g>
  <!-- play button -->
  <circle cx="400" cy="250" r="80" fill="#fff" opacity="0.95"/>
  <polygon points="380,210 380,290 450,250" fill="#7c3aed"/>
  <text x="400" y="370" text-anchor="middle" fill="#fff" font-family="sans-serif" font-size="32" font-weight="800" letter-spacing="2">AI 短剧</text>
</svg>