<svg xmlns="http://www.w3.org/2000/svg" viewBox="0 0 800 500" preserveAspectRatio="xMidYMid slice">
  <defs>
    <linearGradient id="g" x1="0" y1="0" x2="1" y2="1">
      <stop offset="0" stop-color="#0f172a"/>
      <stop offset="1" stop-color="#0e7490"/>
    </linearGradient>
  </defs>
  <rect width="800" height="500" fill="url(#g)"/>
  <!-- waveform -->
  <g fill="#22d3ee" opacity="0.85">
    <rect x="80"  y="220" width="8" height="60" rx="3"/>
    <rect x="100" y="200" width="8" height="100" rx="3"/>
    <rect x="120" y="170" width="8" height="160" rx="3"/>
    <rect x="140" y="190" width="8" height="120" rx="3"/>
    <rect x="160" y="150" width="8" height="200" rx="3"/>
    <rect x="180" y="180" width="8" height="140" rx="3"/>
    <rect x="200" y="120" width="8" height="260" rx="3"/>
    <rect x="220" y="160" width="8" height="180" rx="3"/>
    <rect x="240" y="100" width="8" height="300" rx="3"/>
    <rect x="260" y="140" width="8" height="220" rx="3"/>
    <rect x="280" y="80"  width="8" height="340" rx="3"/>
    <rect x="300" y="130" width="8" height="240" rx="3"/>
    <rect x="320" y="60"  width="8" height="380" rx="3"/>
    <rect x="340" y="110" width="8" height="280" rx="3"/>
    <rect x="360" y="90"  width="8" height="320" rx="3"/>
    <rect x="380" y="140" width="8" height="220" rx="3"/>
    <rect x="400" y="40"  width="8" height="420" rx="3"/>
    <rect x="420" y="140" width="8" height="220" rx="3"/>
    <rect x="440" y="90"  width="8" height="320" rx="3"/>
    <rect x="460" y="110" width="8" height="280" rx="3"/>
    <rect x="480" y="60"  width="8" height="380" rx="3"/>
    <rect x="500" y="130" width="8" height="240" rx="3"/>
    <rect x="520" y="80"  width="8" height="340" rx="3"/>
    <rect x="540" y="140" width="8" height="220" rx="3"/>
    <rect x="560" y="100" width="8" height="300" rx="3"/>
    <rect x="580" y="160" width="8" height="180" rx="3"/>
    <rect x="600" y="120" width="8" height="260" rx="3"/>
    <rect x="620" y="180" width="8" height="140" rx="3"/>
    <rect x="640" y="150" width="8" height="200" rx="3"/>
    <rect x="660" y="190" width="8" height="120" rx="3"/>
    <rect x="680" y="170" width="8" height="160" rx="3"/>
    <rect x="700" y="200" width="8" height="100" rx="3"/>
    <rect x="720" y="220" width="8" height="60" rx="3"/>
  </g>
  <!-- microphone -->
  <g transform="translate(620 120)">
    <rect x="0" y="0" width="40" height="60" rx="20" fill="#fbbf24"/>
    <line x1="20" y1="60" x2="20" y2="80" stroke="#fbbf24" stroke-width="4"/>
    <line x1="6" y1="80" x2="34" y2="80" stroke="#fbbf24" stroke-width="4"/>
  </g>
  <text x="60" y="430" fill="#fff" font-family="sans-serif" font-size="28" font-weight="800">全自动播客流水线</text>
</svg>