<svg xmlns="http://www.w3.org/2000/svg" viewBox="0 0 800 500" preserveAspectRatio="xMidYMid slice">
  <defs>
    <linearGradient id="g" x1="0" y1="0" x2="1" y2="1">
      <stop offset="0" stop-color="#1e3a8a"/>
      <stop offset="1" stop-color="#3b82f6"/>
    </linearGradient>
  </defs>
  <rect width="800" height="500" fill="url(#g)"/>
  <!-- chat bubbles -->
  <g>
    <rect x="100" y="140" width="240" height="80" rx="16" fill="#fff" opacity="0.95"/>
    <polygon points="160,220 180,220 165,240" fill="#fff" opacity="0.95"/>
    <rect x="120" y="160" width="160" height="6" rx="3" fill="#1e3a8a" opacity="0.4"/>
    <rect x="120" y="178" width="200" height="6" rx="3" fill="#1e3a8a" opacity="0.4"/>
    <rect x="120" y="196" width="140" height="6" rx="3" fill="#1e3a8a" opacity="0.4"/>
  </g>
  <g>
    <rect x="460" y="260" width="240" height="80" rx="16" fill="#fbbf24"/>
    <polygon points="600,340 620,340 605,360" fill="#fbbf24"/>
    <rect x="480" y="280" width="180" height="6" rx="3" fill="#1e3a8a"/>
    <rect x="480" y="298" width="200" height="6" rx="3" fill="#1e3a8a"/>
    <rect x="480" y="316" width="120" height="6" rx="3" fill="#1e3a8a"/>
  </g>
  <!-- center icon -->
  <circle cx="400" cy="240" r="60" fill="#fff"/>
  <text x="400" y="258" text-anchor="middle" font-family="sans-serif" font-size="48" font-weight="900" fill="#1e3a8a">?</text>
  <text x="400" y="430" text-anchor="middle" fill="#fff" font-family="sans-serif" font-size="30" font-weight="800">知识库问答机器人</text>
</svg>