<svg xmlns="http://www.w3.org/2000/svg" viewBox="0 0 800 500" preserveAspectRatio="xMidYMid slice">
  <defs>
    <linearGradient id="g" x1="0" y1="0" x2="1" y2="1">
      <stop offset="0" stop-color="#f8fafc"/>
      <stop offset="1" stop-color="#cbd5e1"/>
    </linearGradient>
  </defs>
  <rect width="800" height="500" fill="url(#g)"/>
  <!-- paper sheets -->
  <g transform="translate(200 80) rotate(-6 100 200)">
    <rect width="200" height="280" rx="8" fill="#fff" stroke="#cbd5e1" stroke-width="1"/>
    <rect x="16" y="20" width="120" height="8" rx="4" fill="#0f172a"/>
    <rect x="16" y="40" width="168" height="4" rx="2" fill="#94a3b8"/>
    <rect x="16" y="52" width="160" height="4" rx="2" fill="#94a3b8"/>
    <rect x="16" y="64" width="150" height="4" rx="2" fill="#94a3b8"/>
    <rect x="16" y="80" width="160" height="4" rx="2" fill="#cbd5e1"/>
    <rect x="16" y="92" width="150" height="4" rx="2" fill="#cbd5e1"/>
    <rect x="16" y="104" width="160" height="4" rx="2" fill="#cbd5e1"/>
    <rect x="16" y="120" width="160" height="4" rx="2" fill="#cbd5e1"/>
    <rect x="16" y="132" width="140" height="4" rx="2" fill="#cbd5e1"/>
  </g>
  <g transform="translate(440 100) rotate(5 100 200)">
    <rect width="200" height="280" rx="8" fill="#fff" stroke="#cbd5e1" stroke-width="1"/>
    <rect x="16" y="20" width="140" height="8" rx="4" fill="#0f172a"/>
    <rect x="16" y="40" width="160" height="4" rx="2" fill="#94a3b8"/>
    <rect x="16" y="52" width="150" height="4" rx="2" fill="#94a3b8"/>
    <rect x="16" y="64" width="160" height="4" rx="2" fill="#94a3b8"/>
    <rect x="16" y="80" width="155" height="4" rx="2" fill="#cbd5e1"/>
    <rect x="16" y="92" width="160" height="4" rx="2" fill="#cbd5e1"/>
    <rect x="16" y="104" width="150" height="4" rx="2" fill="#cbd5e1"/>
    <rect x="16" y="120" width="140" height="4" rx="2" fill="#cbd5e1"/>
  </g>
  <text x="400" y="440" text-anchor="middle" fill="#0f172a" font-family="sans-serif" font-size="28" font-weight="800">每日论文摘要</text>
</svg>