<svg xmlns="http://www.w3.org/2000/svg" viewBox="0 0 800 500" preserveAspectRatio="xMidYMid slice">
  <defs>
    <linearGradient id="g" x1="0" y1="0" x2="1" y2="1">
      <stop offset="0" stop-color="#065f46"/>
      <stop offset="1" stop-color="#10b981"/>
    </linearGradient>
  </defs>
  <rect width="800" height="500" fill="url(#g)"/>
  <!-- phone frame -->
  <rect x="280" y="60" width="240" height="380" rx="24" fill="#0f172a"/>
  <rect x="296" y="84" width="208" height="332" rx="8" fill="#fff"/>
  <text x="400" y="130" text-anchor="middle" font-family="sans-serif" font-size="14" font-weight="700" fill="#065f46">公众号爆文</text>
  <line x1="316" y1="150" x2="484" y2="150" stroke="#d1fae5" stroke-width="1"/>
  <rect x="316" y="170" width="168" height="6" rx="3" fill="#10b981" opacity="0.4"/>
  <rect x="316" y="186" width="160" height="6" rx="3" fill="#10b981" opacity="0.4"/>
  <rect x="316" y="202" width="150" height="6" rx="3" fill="#10b981" opacity="0.4"/>
  <rect x="316" y="218" width="170" height="6" rx="3" fill="#10b981" opacity="0.4"/>
  <rect x="316" y="250" width="168" height="100" rx="8" fill="#d1fae5"/>
  <text x="400" y="305" text-anchor="middle" font-family="sans-serif" font-size="22" fill="#065f46" font-weight="800">10W+</text>
  <rect x="316" y="370" width="168" height="6" rx="3" fill="#10b981" opacity="0.4"/>
  <rect x="316" y="386" width="120" height="6" rx="3" fill="#10b981" opacity="0.4"/>
  <text x="400" y="470" text-anchor="middle" fill="#fff" font-family="sans-serif" font-size="22" font-weight="800">爆文仿写机器人</text>
</svg>